<svg id="Layer_2" height="512" viewBox="0 0 64 64" width="512" xmlns="http://www.w3.org/2000/svg" data-name="Layer 2"><path d="m58.392 35.509c-3.936-2.109-8.233-.862-11.392 3.135-3.159-4-7.456-5.241-11.391-3.135a9.888 9.888 0 0 0 -5.109 8.791v1.315c0 6.986 6.883 14.638 16.009 17.8a1.5 1.5 0 0 0 .982 0c9.126-3.159 16.009-10.815 16.009-17.797v-1.318a9.886 9.886 0 0 0 -5.108-8.791z" fill="#3e3ef4"/><path d="m33.378 25.6a18.413 18.413 0 0 0 5.193-12.64c0-7.337-5.122-12.46-12.456-12.46s-12.456 5.123-12.456 12.457a18.4 18.4 0 0 0 5.206 12.652 24.176 24.176 0 0 0 -18.365 23.501 1.505 1.505 0 0 0 .74 1.29 47.215 47.215 0 0 0 24.876 7.069 47.093 47.093 0 0 0 5.964-.4 23.528 23.528 0 0 1 -1.975-2.8c-1.331.123-2.663.2-3.989.2a44.233 44.233 0 0 1 -22.6-6.2 21.126 21.126 0 0 1 14.284-19.211l7.04 11.253a1.5 1.5 0 0 0 2.543 0l7.041-11.251a21.363 21.363 0 0 1 4.891 2.448 11.363 11.363 0 0 1 6.878 2.232 24.636 24.636 0 0 0 -12.815-8.14zm-16.719-12.643c0-5.745 3.712-9.457 9.456-9.457s9.456 3.712 9.456 9.457c0 5.826-4.068 12.884-9.456 12.884s-9.456-7.041-9.456-12.884zm9.456 23.73-5.275-8.432c.488-.091.976-.181 1.475-.239a9.165 9.165 0 0 0 7.609 0c.5.058.986.139 1.473.232z"/></svg>
