<svg id="Capa_1" enable-background="new 0 0 511.999 511.999" height="512" viewBox="0 0 511.999 511.999" width="512" xmlns="http://www.w3.org/2000/svg"><g><g><path d="m96.506 328.967c-13.807 0-24.999-11.192-24.999-24.999v-50.344c0-13.807 11.192-24.999 24.999-24.999h318.987c13.807 0 24.999 11.192 24.999 24.999v50.344c0 13.807-11.192 24.999-24.999 24.999z" fill="#8ac9fe"/><path d="m439.99 248.63h-293.48c-13.81 0-25 11.19-25 25v50.34c0 1.71.17 3.39.5 5h-25.5c-13.81 0-25-11.19-25-25v-50.34c0-13.81 11.19-25 25-25h318.98c12.1 0 22.179 8.589 24.5 20z" fill="#60b7ff"/><path d="m131.072 328.967v-103.186c0-3.866 3.134-7 7-7h15.333c3.866 0 7 3.134 7 7v103.186z" fill="#d8ecfe"/><path d="m380.88 328.969v-103.188c0-3.866-3.134-7-7-7h-15.333c-3.866 0-7 3.134-7 7v103.188z" fill="#d8ecfe"/><path d="m415.62 366.949v137.551h-319.24v-137.55c0-43.65 35.38-79.03 79.03-79.03h161.18c1.68 0 3.35.05 5 .16 2.82.17 5.6.49 8.33.96 7.65 1.3 14.93 3.69 21.66 7.03 2.88 1.42 5.66 3.02 8.34 4.78 21.499 14.119 35.7 38.45 35.7 66.099z" fill="#b0ef9a"/><path d="m415.62 468.439v36.06h-3.51l-45.83-37.99c-15.7-13.02-24.69-32.17-24.69-52.57v-125.86c2.82.17 5.6.49 8.33.96 7.65 1.3 14.93 3.69 21.66 7.03v117.87c0 11.44 5.05 22.17 13.85 29.47z" fill="#9be27d"/><path d="m389.18 307.969c-.86-.04-1.72-.05-2.59-.05h-161.18c-43.65 0-79.03 35.38-79.03 79.03v117.551h-50v-137.55c0-43.65 35.38-79.03 79.03-79.03h161.18c4.54 0 9 .38 13.33 1.12 10.93 1.85 21.09 5.95 30 11.81 3.26 2.14 6.36 4.52 9.26 7.119z" fill="#9be27d"/><path d="m290.849 236.459v52.01c0 9.63-3.9 18.34-10.21 24.64-6.3 6.31-15.02 10.21-24.64 10.21-19.25 0-34.85-15.6-34.85-34.85v-52.01z" fill="#fed2a4"/><path d="m256.44 286.393c1.462-.747 3.161-1.151 4.906-1.362 2.191-.264 4.405-.25 6.6-.473 2.871-.292 5.749-.922 8.554-1.588 2.49-.592 4.955-1.292 7.384-2.1 1.206-.401 2.402-.828 3.589-1.281.348-.133 3.376-1.115 3.376-1.37 0-.003 0-41.76 0-41.76h-39.7-30v41.76 10.25c0 19.25 15.6 34.85 34.85 34.85 5.37 0 10.46-1.21 15-3.39-4.091-1.951-7.787-4.708-10.831-8.065-3.036-3.348-5.756-7.189-7.271-11.479-1.063-3.008-1.437-6.595-.326-9.67.752-2.082 2.146-3.441 3.869-4.322z" fill="#ffbd86"/><path d="m167.628 132.243v44.745c0 48.806 39.565 88.371 88.371 88.371 48.806 0 88.371-39.565 88.371-88.371v-44.745z" fill="#fed2a4"/><path d="m262.379 152.24c-24.715 0-44.75 20.035-44.75 44.75 0 27.43 12.5 51.94 32.11 68.15-45.89-3.21-82.11-41.45-82.11-88.15v-44.75h176.74v20z" fill="#ffbd86"/><path d="m401.219 115.399v.95c0 8.78-7.12 15.89-15.9 15.89h-258.639c-8.78 0-15.9-7.11-15.9-15.89v-.95c0-8.78 7.12-15.89 15.9-15.89h258.64c8.779.001 15.899 7.111 15.899 15.89z" fill="#e19974"/><path d="m176.68 132.24h-50c-8.78 0-15.9-7.11-15.9-15.89v-.95c0-8.78 7.12-15.89 15.9-15.89h50c-8.78 0-15.9 7.11-15.9 15.89v.95c0 8.78 7.12 15.89 15.9 15.89z" fill="#dc8758"/><path d="m363.81 99.51h-212.23l27.82-58.95c9.58-20.3 28.81-33.06 49.8-33.06h56.99c1.39 0 2.76.06 4.13.17 19.36 1.55 36.71 13.93 45.66 32.89z" fill="#e19974"/><path d="m354.442 79.666h-100.255c-20.104 0-33.367-20.925-24.787-39.107 9.58-20.3 28.81-33.06 49.8-33.06h-50c-20.99 0-40.22 12.76-49.8 33.06l-27.82 58.95h50 162.23z" fill="#dc8758"/><path d="m167.628 182.446h-18.998c-7.249 0-13.125-5.876-13.125-13.125v-23.953c0-7.249 5.876-13.125 13.125-13.125h18.999" fill="#ffbd86"/><path d="m344.371 182.446h18.999c7.249 0 13.125-5.876 13.125-13.125v-23.953c0-7.249-5.876-13.125-13.125-13.125h-18.999" fill="#fed2a4"/><g fill="#fedba6"><path d="m365.433 443.411c-8.8-7.3-13.849-18.029-13.849-29.469v-139.58c0-3.866-3.134-7-7-7h-15.999c-3.866 0-7 3.134-7 7v139.581c0 20.399 9 39.548 24.699 52.568l45.828 37.988h23.507l.002-19.479z"/><path d="m146.52 443.411c8.8-7.3 13.849-18.029 13.849-29.469v-139.58c0-3.866 3.134-7 7-7h15.999c3.866 0 7 3.134 7 7v139.581c0 20.399-9 39.548-24.699 52.568l-45.828 37.988h-23.507l-.002-19.479z"/></g></g><path d="m447.992 303.969v-50.344c0-17.92-14.579-32.499-32.499-32.499h-27.893c-1.946-5.715-7.354-9.844-13.719-9.844h-15.332c-6.365 0-11.773 4.129-13.719 9.844h-3.708c4.983-9.567 8.397-20.073 9.905-31.179h12.344c11.373 0 20.625-9.253 20.625-20.626v-23.953c0-1.952-.291-3.834-.8-5.625h2.129c12.897 0 23.391-10.493 23.391-23.392v-.955c0-12.898-10.493-23.392-23.391-23.392h-16.762l-25.797-54.648c-10.878-23.042-32.557-37.356-56.578-37.356h-56.99c-24.021 0-45.7 14.314-56.577 37.355l-25.797 54.649h-20.147c-12.898 0-23.392 10.493-23.392 23.392v.955c0 12.898 10.494 23.392 23.392 23.392h2.128c-.509 1.791-.8 3.673-.8 5.625v23.953c0 11.373 9.252 20.626 20.625 20.626h12.412c1.507 11.105 4.922 21.612 9.904 31.179h-3.823c-1.946-5.715-7.354-9.844-13.719-9.844h-15.333c-6.365 0-11.773 4.129-13.719 9.844h-27.846c-17.92 0-32.499 14.579-32.499 32.499v50.344c0 17.235 13.488 31.372 30.461 32.429-3.61 9.531-5.59 19.795-5.59 30.411v117.379c-.031.275-.046.553-.046.833l.002 19.479c0 4.142 3.358 7.499 7.5 7.499h23.507c.482 0 .959-.051 1.427-.142h269.418c.468.091.945.142 1.427.142h23.507c4.142 0 7.5-3.357 7.5-7.499v-.104c0-.013.002-.026.002-.039v-95.919c0-4.143-3.357-7.5-7.5-7.5s-7.5 3.357-7.5 7.5v60.621l-37.899-31.42c-7.078-5.872-11.138-14.509-11.138-23.696v-115.05c28.862 9.556 49.037 36.864 49.037 67.915v8.857c0 4.143 3.357 7.5 7.5 7.5s7.5-3.357 7.5-7.5v-8.857c0-10.63-1.969-20.891-5.563-30.413 16.959-1.069 30.433-15.2 30.433-32.426zm-103.944-67.843v23.736h-15.464c-7.995 0-14.5 6.505-14.5 14.5v6.053h-15.732v-17.417c12.944-6.395 24.249-15.62 33.091-26.872zm-191.179 62.79v115.028c0 9.188-4.06 17.824-11.138 23.696l-37.853 31.382v-102.213c0-30.941 20.184-58.312 48.991-67.893zm-48.991 197.941v-8.352l47.428-39.32s.001-.001.002-.001c10.525-8.73 16.561-21.576 16.561-35.241v-126.232c.021-.23.035-.462.035-.697v-12.152h14.963v139.081c0 18.15-8.014 35.207-21.985 46.793l-43.575 36.121zm66.579-24.573c17.42-14.447 27.411-35.711 27.411-58.341v-118.528h16.359c2.92 17.612 16.739 31.579 34.273 34.727v63.275c0 4.143 3.358 7.5 7.5 7.5 4.143 0 7.5-3.357 7.5-7.5v-63.275c17.534-3.148 31.353-17.115 34.273-34.727h16.312v118.528c0 22.629 9.991 43.894 27.413 58.342l29.643 24.572h-230.329zm85.577-199.425c9.488 0 18.656-1.392 27.318-3.972v19.58c0 15.082-12.271 27.353-27.353 27.353s-27.353-12.271-27.353-27.353v-19.601c8.683 2.594 17.875 3.993 27.388 3.993zm112.961-127.491v23.953c0 3.103-2.523 5.626-5.625 5.626h-11.465v-35.204h11.465c3.101 0 5.625 2.524 5.625 5.625zm-182.81-101.609c8.374-17.739 24.856-28.759 43.013-28.759h56.99c18.157 0 34.639 11.02 43.013 28.759l22.774 48.246h-188.565zm-67.901 72.593v-.955c0-4.627 3.765-8.392 8.392-8.392h24.9 212.233 21.515c4.627 0 8.391 3.765 8.391 8.392v.955c0 4.627-3.764 8.392-8.391 8.392h-21.954-17.528-1.437-.034-72.044c-4.143 0-7.5 3.357-7.5 7.5s3.357 7.5 7.5 7.5h64.578v37.246c0 44.592-36.278 80.87-80.871 80.87s-80.871-36.278-80.871-80.87v-37.246h64.492c4.142 0 7.5-3.357 7.5-7.5s-3.358-7.5-7.5-7.5h-71.992c-.006 0-.011.001-.017.001s-.011-.001-.017-.001h-18.999c-.297 0-.585.032-.879.044-.265-.028-.533-.044-.805-.044h-20.271c-4.626-.001-8.391-3.765-8.391-8.392zm24.72 52.969v-23.953c0-3.102 2.523-5.625 5.625-5.625h11.533v35.204h-11.532c-3.102 0-5.626-2.523-5.626-5.626zm70.643 93.642v17.452h-15.779v-6.053c0-7.995-6.505-14.5-14.5-14.5h-15.463v-23.736h12.72c8.826 11.231 20.107 20.444 33.022 26.837zm-60.743-36.681v47.386c-.011.231-.035.46-.035.694v8.896c-4.969 1.339-9.745 3.11-14.297 5.265v-62.241zm-56.398 95.186c-9.649 0-17.499-7.85-17.499-17.499v-50.344c0-9.649 7.85-17.499 17.499-17.499h27.066v61.465c-8.679 6.542-16.064 14.66-21.759 23.877zm264.139 127.717 47.476 39.359-.001 8.313h-13.475l-43.573-36.12c-13.974-11.588-21.987-28.644-21.987-46.794v-139.081h14.964v52.324c0 .235.014.467.035.697v86.06c-.001 13.665 6.036 26.511 16.561 35.242zm-1.597-175.517v-47.386h14.332v62.209c-4.551-2.145-9.328-3.906-14.297-5.241v-8.888c0-.234-.024-.462-.035-.694zm73.944 30.301c0 9.649-7.85 17.499-17.499 17.499h-5.27c-5.708-9.254-13.121-17.391-21.842-23.941v-61.401h27.112c9.649 0 17.499 7.85 17.499 17.499z"/></g></svg>